<mxfile host="app.diagrams.net" modified="2024-06-11T20:02:57.462Z" agent="Mozilla/5.0 (X11; Ubuntu; Linux x86_64; rv:126.0) Gecko/20100101 Firefox/126.0" etag="8Aw4wQTbC7Xg0sZwSGAY" version="24.5.3" type="github">
  <diagram id="C5RBs43oDa-KdzZeNtuy" name="Page-1">
    <mxGraphModel dx="2261" dy="795" grid="1" gridSize="10" guides="1" tooltips="1" connect="1" arrows="1" fold="1" page="1" pageScale="1" pageWidth="827" pageHeight="1169" background="none" math="0" shadow="0">
      <root>
        <mxCell id="WIyWlLk6GJQsqaUBKTNV-0" />
        <mxCell id="WIyWlLk6GJQsqaUBKTNV-1" parent="WIyWlLk6GJQsqaUBKTNV-0" />
        <mxCell id="OcmiRHPTQbwhOu05NM4p-9" value="Jogo" style="rounded=0;whiteSpace=wrap;html=1;" vertex="1" parent="WIyWlLk6GJQsqaUBKTNV-1">
          <mxGeometry x="-740" y="410" width="120" height="60" as="geometry" />
        </mxCell>
        <mxCell id="OcmiRHPTQbwhOu05NM4p-54" style="edgeStyle=orthogonalEdgeStyle;rounded=0;orthogonalLoop=1;jettySize=auto;html=1;entryX=1;entryY=0.5;entryDx=0;entryDy=0;" edge="1" parent="WIyWlLk6GJQsqaUBKTNV-1" source="OcmiRHPTQbwhOu05NM4p-10" target="OcmiRHPTQbwhOu05NM4p-9">
          <mxGeometry relative="1" as="geometry" />
        </mxCell>
        <mxCell id="OcmiRHPTQbwhOu05NM4p-10" value="Mapa" style="rounded=0;whiteSpace=wrap;html=1;" vertex="1" parent="WIyWlLk6GJQsqaUBKTNV-1">
          <mxGeometry x="-640" y="100" width="120" height="60" as="geometry" />
        </mxCell>
        <mxCell id="OcmiRHPTQbwhOu05NM4p-11" value="Pontos" style="rounded=0;whiteSpace=wrap;html=1;" vertex="1" parent="WIyWlLk6GJQsqaUBKTNV-1">
          <mxGeometry x="-640" y="600" width="120" height="60" as="geometry" />
        </mxCell>
        <mxCell id="OcmiRHPTQbwhOu05NM4p-12" value="Iterações" style="rounded=0;whiteSpace=wrap;html=1;" vertex="1" parent="WIyWlLk6GJQsqaUBKTNV-1">
          <mxGeometry x="-640" y="680" width="120" height="60" as="geometry" />
        </mxCell>
        <mxCell id="OcmiRHPTQbwhOu05NM4p-69" value="" style="edgeStyle=orthogonalEdgeStyle;rounded=0;orthogonalLoop=1;jettySize=auto;html=1;" edge="1" parent="WIyWlLk6GJQsqaUBKTNV-1" source="OcmiRHPTQbwhOu05NM4p-14" target="OcmiRHPTQbwhOu05NM4p-10">
          <mxGeometry relative="1" as="geometry" />
        </mxCell>
        <mxCell id="OcmiRHPTQbwhOu05NM4p-14" value="Jogador" style="rounded=0;whiteSpace=wrap;html=1;" vertex="1" parent="WIyWlLk6GJQsqaUBKTNV-1">
          <mxGeometry x="-473" y="100" width="120" height="60" as="geometry" />
        </mxCell>
        <mxCell id="OcmiRHPTQbwhOu05NM4p-15" value="Estatisticas" style="rounded=0;whiteSpace=wrap;html=1;" vertex="1" parent="WIyWlLk6GJQsqaUBKTNV-1">
          <mxGeometry x="-640" y="760" width="120" height="60" as="geometry" />
        </mxCell>
        <mxCell id="OcmiRHPTQbwhOu05NM4p-16" value="Heatmap" style="rounded=0;whiteSpace=wrap;html=1;" vertex="1" parent="WIyWlLk6GJQsqaUBKTNV-1">
          <mxGeometry x="-640" y="840" width="120" height="60" as="geometry" />
        </mxCell>
        <mxCell id="OcmiRHPTQbwhOu05NM4p-68" style="edgeStyle=orthogonalEdgeStyle;rounded=0;orthogonalLoop=1;jettySize=auto;html=1;entryX=1;entryY=0.5;entryDx=0;entryDy=0;" edge="1" parent="WIyWlLk6GJQsqaUBKTNV-1" source="OcmiRHPTQbwhOu05NM4p-34" target="OcmiRHPTQbwhOu05NM4p-10">
          <mxGeometry relative="1" as="geometry" />
        </mxCell>
        <mxCell id="OcmiRHPTQbwhOu05NM4p-34" value="Matriz mapa" style="rounded=0;whiteSpace=wrap;html=1;" vertex="1" parent="WIyWlLk6GJQsqaUBKTNV-1">
          <mxGeometry x="-473" y="10" width="120" height="60" as="geometry" />
        </mxCell>
        <mxCell id="OcmiRHPTQbwhOu05NM4p-67" value="" style="edgeStyle=orthogonalEdgeStyle;rounded=0;orthogonalLoop=1;jettySize=auto;html=1;" edge="1" parent="WIyWlLk6GJQsqaUBKTNV-1" source="OcmiRHPTQbwhOu05NM4p-55" target="OcmiRHPTQbwhOu05NM4p-66">
          <mxGeometry relative="1" as="geometry" />
        </mxCell>
        <mxCell id="OcmiRHPTQbwhOu05NM4p-55" value="&lt;div&gt;Inimigo&lt;/div&gt;" style="whiteSpace=wrap;html=1;" vertex="1" parent="WIyWlLk6GJQsqaUBKTNV-1">
          <mxGeometry x="-313" y="310" width="120" height="60" as="geometry" />
        </mxCell>
        <mxCell id="OcmiRHPTQbwhOu05NM4p-61" style="edgeStyle=orthogonalEdgeStyle;rounded=0;orthogonalLoop=1;jettySize=auto;html=1;entryX=1;entryY=0.5;entryDx=0;entryDy=0;" edge="1" parent="WIyWlLk6GJQsqaUBKTNV-1" source="OcmiRHPTQbwhOu05NM4p-57" target="OcmiRHPTQbwhOu05NM4p-55">
          <mxGeometry relative="1" as="geometry" />
        </mxCell>
        <mxCell id="OcmiRHPTQbwhOu05NM4p-57" value="&lt;div&gt;Flag animação&lt;/div&gt;" style="whiteSpace=wrap;html=1;" vertex="1" parent="WIyWlLk6GJQsqaUBKTNV-1">
          <mxGeometry x="-153" y="230" width="120" height="60" as="geometry" />
        </mxCell>
        <mxCell id="OcmiRHPTQbwhOu05NM4p-62" style="edgeStyle=orthogonalEdgeStyle;rounded=0;orthogonalLoop=1;jettySize=auto;html=1;" edge="1" parent="WIyWlLk6GJQsqaUBKTNV-1" source="OcmiRHPTQbwhOu05NM4p-58">
          <mxGeometry relative="1" as="geometry">
            <mxPoint x="-193" y="340" as="targetPoint" />
          </mxGeometry>
        </mxCell>
        <mxCell id="OcmiRHPTQbwhOu05NM4p-58" value="&lt;div&gt;Frames&lt;/div&gt;" style="whiteSpace=wrap;html=1;" vertex="1" parent="WIyWlLk6GJQsqaUBKTNV-1">
          <mxGeometry x="-153" y="310" width="120" height="60" as="geometry" />
        </mxCell>
        <mxCell id="OcmiRHPTQbwhOu05NM4p-63" style="edgeStyle=orthogonalEdgeStyle;rounded=0;orthogonalLoop=1;jettySize=auto;html=1;entryX=1;entryY=0.5;entryDx=0;entryDy=0;" edge="1" parent="WIyWlLk6GJQsqaUBKTNV-1" source="OcmiRHPTQbwhOu05NM4p-59" target="OcmiRHPTQbwhOu05NM4p-55">
          <mxGeometry relative="1" as="geometry" />
        </mxCell>
        <mxCell id="OcmiRHPTQbwhOu05NM4p-59" value="&lt;div&gt;Posição&lt;/div&gt;&amp;nbsp;(x, y)" style="whiteSpace=wrap;html=1;" vertex="1" parent="WIyWlLk6GJQsqaUBKTNV-1">
          <mxGeometry x="-153" y="390" width="120" height="60" as="geometry" />
        </mxCell>
        <mxCell id="OcmiRHPTQbwhOu05NM4p-65" value="" style="edgeStyle=orthogonalEdgeStyle;rounded=0;orthogonalLoop=1;jettySize=auto;html=1;" edge="1" parent="WIyWlLk6GJQsqaUBKTNV-1" source="OcmiRHPTQbwhOu05NM4p-64" target="OcmiRHPTQbwhOu05NM4p-58">
          <mxGeometry relative="1" as="geometry" />
        </mxCell>
        <mxCell id="OcmiRHPTQbwhOu05NM4p-64" value="Matriz 3x3" style="whiteSpace=wrap;html=1;" vertex="1" parent="WIyWlLk6GJQsqaUBKTNV-1">
          <mxGeometry x="-3" y="310" width="120" height="60" as="geometry" />
        </mxCell>
        <mxCell id="OcmiRHPTQbwhOu05NM4p-87" style="edgeStyle=orthogonalEdgeStyle;rounded=0;orthogonalLoop=1;jettySize=auto;html=1;entryX=1;entryY=0.5;entryDx=0;entryDy=0;" edge="1" parent="WIyWlLk6GJQsqaUBKTNV-1" source="OcmiRHPTQbwhOu05NM4p-66" target="OcmiRHPTQbwhOu05NM4p-10">
          <mxGeometry relative="1" as="geometry" />
        </mxCell>
        <mxCell id="OcmiRHPTQbwhOu05NM4p-66" value="&lt;div&gt;Matriz de inimigos (fileira e índice)&lt;/div&gt;&lt;div&gt;(3 x 34)&lt;br&gt;&lt;/div&gt;" style="whiteSpace=wrap;html=1;" vertex="1" parent="WIyWlLk6GJQsqaUBKTNV-1">
          <mxGeometry x="-473" y="310" width="120" height="60" as="geometry" />
        </mxCell>
        <mxCell id="OcmiRHPTQbwhOu05NM4p-72" value="" style="edgeStyle=orthogonalEdgeStyle;rounded=0;orthogonalLoop=1;jettySize=auto;html=1;" edge="1" parent="WIyWlLk6GJQsqaUBKTNV-1" source="OcmiRHPTQbwhOu05NM4p-70" target="OcmiRHPTQbwhOu05NM4p-14">
          <mxGeometry relative="1" as="geometry" />
        </mxCell>
        <mxCell id="OcmiRHPTQbwhOu05NM4p-70" value="Posição (x, y)" style="whiteSpace=wrap;html=1;" vertex="1" parent="WIyWlLk6GJQsqaUBKTNV-1">
          <mxGeometry x="-313" y="100" width="120" height="60" as="geometry" />
        </mxCell>
        <mxCell id="OcmiRHPTQbwhOu05NM4p-73" style="edgeStyle=orthogonalEdgeStyle;rounded=0;orthogonalLoop=1;jettySize=auto;html=1;entryX=1;entryY=0.5;entryDx=0;entryDy=0;" edge="1" parent="WIyWlLk6GJQsqaUBKTNV-1" source="OcmiRHPTQbwhOu05NM4p-71" target="OcmiRHPTQbwhOu05NM4p-14">
          <mxGeometry relative="1" as="geometry" />
        </mxCell>
        <mxCell id="OcmiRHPTQbwhOu05NM4p-71" value="Desenho (matriz 3x3)" style="whiteSpace=wrap;html=1;" vertex="1" parent="WIyWlLk6GJQsqaUBKTNV-1">
          <mxGeometry x="-313" y="180" width="120" height="60" as="geometry" />
        </mxCell>
        <mxCell id="OcmiRHPTQbwhOu05NM4p-75" style="edgeStyle=orthogonalEdgeStyle;rounded=0;orthogonalLoop=1;jettySize=auto;html=1;entryX=1;entryY=0.5;entryDx=0;entryDy=0;" edge="1" parent="WIyWlLk6GJQsqaUBKTNV-1" source="OcmiRHPTQbwhOu05NM4p-74" target="OcmiRHPTQbwhOu05NM4p-55">
          <mxGeometry relative="1" as="geometry" />
        </mxCell>
        <mxCell id="OcmiRHPTQbwhOu05NM4p-74" value="&lt;div&gt;Frame Atual&lt;/div&gt;&lt;div&gt;(usado para a animação)&lt;br&gt;&lt;/div&gt;" style="whiteSpace=wrap;html=1;" vertex="1" parent="WIyWlLk6GJQsqaUBKTNV-1">
          <mxGeometry x="-153" y="470" width="120" height="60" as="geometry" />
        </mxCell>
        <mxCell id="OcmiRHPTQbwhOu05NM4p-88" style="edgeStyle=orthogonalEdgeStyle;rounded=0;orthogonalLoop=1;jettySize=auto;html=1;entryX=1;entryY=0.5;entryDx=0;entryDy=0;" edge="1" parent="WIyWlLk6GJQsqaUBKTNV-1" source="OcmiRHPTQbwhOu05NM4p-76" target="OcmiRHPTQbwhOu05NM4p-10">
          <mxGeometry relative="1" as="geometry" />
        </mxCell>
        <mxCell id="OcmiRHPTQbwhOu05NM4p-76" value="&lt;div&gt;Disparo&lt;/div&gt;" style="whiteSpace=wrap;html=1;" vertex="1" parent="WIyWlLk6GJQsqaUBKTNV-1">
          <mxGeometry x="-473" y="510" width="120" height="60" as="geometry" />
        </mxCell>
        <mxCell id="OcmiRHPTQbwhOu05NM4p-89" value="" style="edgeStyle=orthogonalEdgeStyle;rounded=0;orthogonalLoop=1;jettySize=auto;html=1;" edge="1" parent="WIyWlLk6GJQsqaUBKTNV-1" source="OcmiRHPTQbwhOu05NM4p-77" target="OcmiRHPTQbwhOu05NM4p-76">
          <mxGeometry relative="1" as="geometry" />
        </mxCell>
        <mxCell id="OcmiRHPTQbwhOu05NM4p-77" value="Flag ativo" style="whiteSpace=wrap;html=1;" vertex="1" parent="WIyWlLk6GJQsqaUBKTNV-1">
          <mxGeometry x="-313" y="510" width="120" height="60" as="geometry" />
        </mxCell>
        <mxCell id="OcmiRHPTQbwhOu05NM4p-90" style="edgeStyle=orthogonalEdgeStyle;rounded=0;orthogonalLoop=1;jettySize=auto;html=1;entryX=1;entryY=0.5;entryDx=0;entryDy=0;" edge="1" parent="WIyWlLk6GJQsqaUBKTNV-1" source="OcmiRHPTQbwhOu05NM4p-78" target="OcmiRHPTQbwhOu05NM4p-76">
          <mxGeometry relative="1" as="geometry" />
        </mxCell>
        <mxCell id="OcmiRHPTQbwhOu05NM4p-78" value="Posição (x, y)" style="whiteSpace=wrap;html=1;" vertex="1" parent="WIyWlLk6GJQsqaUBKTNV-1">
          <mxGeometry x="-313" y="585" width="120" height="60" as="geometry" />
        </mxCell>
        <mxCell id="OcmiRHPTQbwhOu05NM4p-91" style="edgeStyle=orthogonalEdgeStyle;rounded=0;orthogonalLoop=1;jettySize=auto;html=1;entryX=1;entryY=0.5;entryDx=0;entryDy=0;" edge="1" parent="WIyWlLk6GJQsqaUBKTNV-1" source="OcmiRHPTQbwhOu05NM4p-79" target="OcmiRHPTQbwhOu05NM4p-76">
          <mxGeometry relative="1" as="geometry" />
        </mxCell>
        <mxCell id="OcmiRHPTQbwhOu05NM4p-79" value="&lt;div&gt;Simbolo(caracter)&lt;/div&gt;" style="whiteSpace=wrap;html=1;" vertex="1" parent="WIyWlLk6GJQsqaUBKTNV-1">
          <mxGeometry x="-313" y="660" width="120" height="60" as="geometry" />
        </mxCell>
      </root>
    </mxGraphModel>
  </diagram>
</mxfile>
